<svg xmlns="http://www.w3.org/2000/svg" width="2054.792" height="1203" viewBox="0 0 2054.792 1203">
  <defs>
    <style>
      .cls-1 {
        fill: #d9eae1;
        opacity: 0.503;
      }

      .cls-2 {
        opacity: 0.673;
      }

      .cls-3 {
        fill: #fff5e5;
      }

      .cls-4, .cls-6 {
        fill: none;
        stroke-width: 5px;
      }

      .cls-4 {
        stroke: #6e907e;
        opacity: 0.385;
      }

      .cls-5 {
        fill: #6e907e;
        stroke: #707070;
      }

      .cls-6 {
        stroke: #fff;
      }

      .cls-7 {
        opacity: 0.681;
      }

      .cls-8 {
        opacity: 0.337;
      }
    </style>
  </defs>
  <g id="组_70" data-name="组 70" transform="translate(95.792 69)">
    <rect id="矩形_156" data-name="矩形 156" class="cls-1" width="2008" height="1203" transform="translate(-49 -69)"/>
    <g id="组_50" data-name="组 50" class="cls-2" transform="translate(220.936 394.043) rotate(71)">
      <path id="路径_22" data-name="路径 22" class="cls-3" d="M-2079.617-6104.813s-8.131-88.916-216.189-131.387c-35.37-7.22-79.051,5.26-79.051,5.26s14.481,132.65,54.625,206.063,105.95,87.59,105.95,87.59l157.661,33.817Z" transform="translate(2374.856 6238.448)"/>
      <line id="直线_77" data-name="直线 77" class="cls-4" x1="294.869" y1="291.5" transform="translate(0.12 9.903)"/>
      <line id="直线_78" data-name="直线 78" class="cls-4" x1="50.148" y1="165.625" transform="translate(118.97 9.903)"/>
      <line id="直线_80" data-name="直线 80" class="cls-4" x2="133.393" y2="7.95" transform="translate(35.725 167.578)"/>
      <line id="直线_81" data-name="直线 81" class="cls-4" x2="170.502" y2="7.95" transform="translate(94.398 262.979)"/>
      <line id="直线_79" data-name="直线 79" class="cls-4" x1="41.623" y1="216.638" transform="translate(223.278 54.291)"/>
    </g>
    <g id="组_47" data-name="组 47">
      <path id="路径_22-2" data-name="路径 22" class="cls-5" d="M-2329-6036.735s16.214-134.213,431.1-198.319c70.531-10.9,157.636,7.939,157.636,7.939s-28.877,200.227-108.927,311.039-211.276,132.211-211.276,132.211l-314.392,51.045Z" transform="translate(2329 6864)"/>
      <line id="直线_77-2" data-name="直线 77" class="cls-6" y1="440" x2="588" transform="translate(0.5 640.5)"/>
      <line id="直线_78-2" data-name="直线 78" class="cls-6" y1="250" x2="100" transform="translate(251.5 640.5)"/>
      <line id="直线_80-2" data-name="直线 80" class="cls-6" x1="266" y2="12" transform="translate(251.5 878.5)"/>
      <line id="直线_81-2" data-name="直线 81" class="cls-6" x1="340" y2="12" transform="translate(60.5 1022.5)"/>
      <line id="直线_79-2" data-name="直线 79" class="cls-6" y1="327" x2="83" transform="translate(60.5 707.5)"/>
    </g>
    <g id="组_48" data-name="组 48" class="cls-7" transform="translate(153.592 -34.176) rotate(-2)">
      <path id="路径_22-3" data-name="路径 22" class="cls-5" d="M17.566,116.417s6.211,51.411,165.138,75.968c27.018,4.175,60.384-3.041,60.384-3.041s-11.061-76.7-41.725-119.146S120.43,19.553,120.43,19.553L0,0Z" transform="translate(0 0)"/>
      <line id="直线_77-3" data-name="直线 77" class="cls-6" x2="225.238" y2="168.545" transform="translate(17.757 19.413)"/>
      <line id="直线_78-3" data-name="直线 78" class="cls-6" x2="38.306" y2="95.764" transform="translate(113.905 92.194)"/>
      <line id="直线_80-3" data-name="直线 80" class="cls-6" x1="101.893" y1="4.597" transform="translate(113.905 92.194)"/>
      <line id="直线_81-3" data-name="直线 81" class="cls-6" x1="130.24" y1="4.597" transform="translate(40.741 37.034)"/>
      <line id="直线_79-3" data-name="直线 79" class="cls-6" x2="31.794" y2="125.26" transform="translate(40.741 37.034)"/>
    </g>
    <g id="组_49" data-name="组 49" class="cls-8" transform="translate(1920 536.073) rotate(110)">
      <path id="路径_22-4" data-name="路径 22" class="cls-5" d="M17.566,116.417s6.211,51.411,165.138,75.968c27.018,4.175,60.384-3.041,60.384-3.041s-11.061-76.7-41.725-119.146S120.43,19.553,120.43,19.553L0,0Z" transform="translate(0 0)"/>
      <line id="直线_77-4" data-name="直线 77" class="cls-6" x2="225.238" y2="168.545" transform="translate(17.757 19.413)"/>
      <line id="直线_78-4" data-name="直线 78" class="cls-6" x2="38.306" y2="95.764" transform="translate(113.905 92.194)"/>
      <line id="直线_80-4" data-name="直线 80" class="cls-6" x1="101.893" y1="4.597" transform="translate(113.905 92.194)"/>
      <line id="直线_81-4" data-name="直线 81" class="cls-6" x1="130.24" y1="4.597" transform="translate(40.741 37.034)"/>
      <line id="直线_79-4" data-name="直线 79" class="cls-6" x2="31.794" y2="125.26" transform="translate(40.741 37.034)"/>
    </g>
  </g>
</svg>
